<svg xmlns="http://www.w3.org/2000/svg" width="398.486" height="398.48" viewBox="0 0 398.486 398.48">
  <path id="contacts" d="M202.618,3.375c-110.039,0-199.243,89.2-199.243,199.24s89.2,199.24,199.243,199.24,199.243-89.2,199.243-199.24S312.657,3.375,202.618,3.375ZM339.886,256.158c-7.76-2.5-22.693-3.251-28.251-9.962-2.768-3.356-.965-15.9-.965-15.9a60.444,60.444,0,0,0,29.7-5.851c3.733-2.2,2.1-2.58,0-5.851a118.2,118.2,0,0,1-6.292-59,48.866,48.866,0,0,0-19-42.449,61.032,61.032,0,0,0-30.138-6.69,67.261,67.261,0,0,0-24.245,3.922c-40.625,16.275-16.674,70.112-30.558,100.962-2.391,5.18-5.851,6.984.189,10.067a74.077,74.077,0,0,0,27.684,6.04s.294,12.059,0,13.318c-1.049,4.7-11.3,7.949-15.142,9a126.156,126.156,0,0,0-15.709,5.453,3.817,3.817,0,0,0,.776,7.277,74.057,74.057,0,0,1,11.011,2.768,104.151,104.151,0,0,1,44.043,23.951,65.371,65.371,0,0,1,19.148,42.721,11.891,11.891,0,0,1-5.264,11.011l-5.453,3.439a2.726,2.726,0,0,1-4.195-2.307h0a65.267,65.267,0,0,0-43.875-62.457c-12.94-4.509-26.908-4.782-39.849-9.291-3.922-1.342-11.682-2.978-13.318-7.466a54.3,54.3,0,0,1-1.825-14.177q-.294-5.453-.294-10.927c0-2.391,6.124-7.466,7.466-9.668a72.816,72.816,0,0,0,6.606-29.991c8.389,2.307,9.4-13.129,10.822-17.827,1.049-3.251,4.782-20.029-2.5-22.609a40.288,40.288,0,0,0,4.027-14.073,84.625,84.625,0,0,0-1.049-37.646,59.311,59.311,0,0,0-56.795-39.659,60.822,60.822,0,0,0-60.821,36.2,79.066,79.066,0,0,0-2.685,37.751,47.4,47.4,0,0,0,4.509,17.344c-6.124,2.684-4.32,16.946-3.251,20.406,1.531,4.887,2.873,22.42,11.6,20.029a137.031,137.031,0,0,0,3.733,23.28,34.814,34.814,0,0,0,7.865,13.318c1.72,1.908,2.58,2.1,2.5,4.593a95.653,95.653,0,0,1-1.678,22.944c-1.909,7.277-17.911,10.339-24.329,11.682a141.194,141.194,0,0,0-39.66,11.011,172.5,172.5,0,1,1,306.792-20.134A45.26,45.26,0,0,0,339.886,256.158Z" transform="translate(-3.375 -3.375)" fill="#fff"/>
</svg>
