<svg id="diamond" xmlns="http://www.w3.org/2000/svg" width="391.039" height="349.761" viewBox="0 0 391.039 349.761">
  <g id="iconfinder_diamond_430094" transform="translate(0 0)">
    <path id="Path_5" data-name="Path 5" d="M397.238,141.343H21.822a7.823,7.823,0,0,1-5.977-12.856L105.9,21.673a7.823,7.823,0,0,1,5.977-2.789H307.2a7.823,7.823,0,0,1,5.977,2.789l90.037,106.814a7.823,7.823,0,0,1-5.977,12.856ZM38.6,125.7H380.459L303.573,34.53H115.425Z" transform="translate(-14.011 -18.884)" fill="#fff"/>
    <path id="Path_6" data-name="Path 6" d="M208.223,287.142,14.475,57.072,26.451,47,208.223,262.918,390,46.9l11.976,10.067Z" transform="translate(-12.745 62.619)" fill="#fff"/>
    <path id="Path_7" data-name="Path 7" d="M128.345,364.152h0a7.823,7.823,0,0,1-7.382-5.222L42.356,135.97a7.823,7.823,0,0,1,1.07-7.236L122.032,21.921a8.117,8.117,0,0,1,12.584,0l78.628,106.814a7.8,7.8,0,0,1,1.069,7.235L135.706,358.93a7.8,7.8,0,0,1-7.362,5.222ZM58.5,134.67l69.84,198.192,69.861-198.129L128.345,39.747Z" transform="translate(67.133 -18.712)" fill="#fff"/>
    <rect id="Rectangle_10" data-name="Rectangle 10" width="108.512" height="15.646" transform="matrix(0.176, 0.984, -0.984, 0.176, 105.483, 6.439)" fill="#fff"/>
    <rect id="Rectangle_11" data-name="Rectangle 11" width="15.646" height="108.512" transform="translate(285.493 6.439) rotate(10.137)" fill="#fff"/>
  </g>
</svg>
