<svg id="home" xmlns="http://www.w3.org/2000/svg" width="405.806" height="315.521" viewBox="0 0 405.806 315.521">
  <path id="Icon_awesome-home" data-name="Icon awesome-home" d="M197.5,84.1,67.633,191.059v115.35A11.262,11.262,0,0,0,78.9,317.67l78.921-.21A11.262,11.262,0,0,0,169.037,306.2V238.876A11.262,11.262,0,0,1,180.4,227.635h45.071A11.262,11.262,0,0,1,236.738,238.9v67.364A11.262,11.262,0,0,0,248,317.565l78.9.21a11.262,11.262,0,0,0,11.262-11.262V190.975L208.341,84.014A8.578,8.578,0,0,0,197.5,84.1Zm205.22,72.691-58.976-48.531V10.715a8.389,8.389,0,0,0-8.389-8.389h-39.6a8.389,8.389,0,0,0-8.389,8.389V61.846L224.343,9.96a33.809,33.809,0,0,0-42.974,0L3.1,156.768a8.389,8.389,0,0,0-1.133,11.912L19.92,190.513a8.389,8.389,0,0,0,11.913,1.154L197.519,55.219a8.578,8.578,0,0,1,10.78,0L373.985,191.667a8.389,8.389,0,0,0,11.913-1.132L403.85,168.7a8.389,8.389,0,0,0-1.2-11.933Z" transform="translate(0.002 -2.254)" fill="#fff"/>
</svg>
