<svg xmlns="http://www.w3.org/2000/svg" width="331.477" height="331.368" viewBox="0 0 331.477 331.368">
  <path id="instagram" d="M165.8,82.952A84.835,84.835,0,1,0,225.91,107.8,84.961,84.961,0,0,0,165.8,82.952Zm0,140.2a55.242,55.242,0,1,1,55.243-55.242A55.242,55.242,0,0,1,165.8,223.154ZM274.058,79.47a8.208,8.208,0,1,0-.021,0Zm56.27,20.113a98.067,98.067,0,0,0-26.8-69.419A98.72,98.72,0,0,0,234.084,3.4C206.819,1.851,124.71,1.851,97.361,3.4A98.573,98.573,0,0,0,27.941,30.08,98.382,98.382,0,0,0,1.158,99.52c-1.552,27.264-1.552,109.372,0,136.721a98.067,98.067,0,0,0,26.761,69.44,98.846,98.846,0,0,0,69.441,26.761c27.265,1.552,109.374,1.552,136.722,0a98.07,98.07,0,0,0,69.441-26.761,98.718,98.718,0,0,0,26.782-69.357c1.552-27.264,1.552-109.289,0-136.658Zm-35.381,166.1a55.913,55.913,0,0,1-31.459,31.459c-21.812,8.662-73.573,6.648-97.692,6.648a368.08,368.08,0,0,1-97.713-6.648,55.913,55.913,0,0,1-31.459-31.459c-8.662-21.812-6.648-73.572-6.648-97.691a368.066,368.066,0,0,1,6.648-97.69A55.913,55.913,0,0,1,68.083,38.846c21.812-8.662,73.573-6.648,97.692-6.648a368.081,368.081,0,0,1,97.692,6.648,55.913,55.913,0,0,1,31.459,31.459c8.662,21.812,6.648,73.572,6.648,97.691S303.609,243.854,294.947,265.686Z" transform="translate(0.006 -2.238)" fill="#fff"/>
</svg>
