<svg xmlns="http://www.w3.org/2000/svg" width="276.171" height="275.916" viewBox="0 0 276.171 275.916">
  <path id="linkedin" d="M62.044,275.874H4.85V91.692H62.044ZM33.416,66.567a33.284,33.284,0,1,1,33.137-33.43,33.284,33.284,0,0,1-33.137,33.43ZM276.093,275.874H219.026V186.216c0-21.371-.44-48.761-29.74-48.761-29.74,0-34.291,23.217-34.291,47.23v91.189H97.865V91.692H152.73v25.167h.8a60.088,60.088,0,0,1,54.11-29.739c57.885,0,68.519,38.107,68.519,87.624V275.916Z" transform="translate(0.015)" fill="#fff"/>
</svg>
