<svg xmlns="http://www.w3.org/2000/svg" width="403.67" height="283.739" viewBox="0 0 403.67 283.739">
  <path id="youtube" d="M396.322,48.92a50.733,50.733,0,0,0-35.654-36.031C329.208,4.5,202.888,4.5,202.888,4.5S76.61,4.5,45.109,12.889A50.754,50.754,0,0,0,9.455,48.815a532.3,532.3,0,0,0-8.389,97.837A532.31,532.31,0,0,0,9.455,244.49a49.978,49.978,0,0,0,35.654,35.36c31.459,8.389,157.779,8.389,157.779,8.389s126.278,0,157.779-8.389a49.978,49.978,0,0,0,35.654-35.36,532.309,532.309,0,0,0,8.389-97.837,532.3,532.3,0,0,0-8.389-97.837ZM161.593,206.8V86.713l105.557,60.045Z" transform="translate(-1.053 -4.5)" fill="#fff"/>
</svg>
